<svg width="17" height="14" viewBox="0 0 17 14" fill="none" xmlns="http://www.w3.org/2000/svg">
<g id="video quality badges">
<rect x="0.5" y="0.5" width="16" height="13" rx="1.5" stroke="#575757"/>
<g id="HD">
<path d="M3 10.0001V4.43206H4.088V6.60806H6.8V4.43206H7.888V10.0001H6.8V7.56006H4.088V10.0001H3Z" fill="#CBCBCB"/>
<path d="M9.39844 10.0001V4.43206H11.5024C12.0571 4.43206 12.5424 4.54673 12.9584 4.77606C13.3798 5.00539 13.7078 5.32806 13.9424 5.74406C14.1824 6.16006 14.3024 6.65073 14.3024 7.21606C14.3024 7.78139 14.1824 8.27206 13.9424 8.68806C13.7078 9.10406 13.3798 9.42673 12.9584 9.65606C12.5424 9.88539 12.0571 10.0001 11.5024 10.0001H9.39844ZM10.4864 9.04806H11.4384C11.7798 9.04806 12.0811 8.97606 12.3424 8.83206C12.6091 8.68806 12.8171 8.48006 12.9664 8.20806C13.1211 7.93606 13.1984 7.60539 13.1984 7.21606C13.1984 6.82673 13.1211 6.49606 12.9664 6.22406C12.8171 5.95206 12.6091 5.74406 12.3424 5.60006C12.0811 5.45606 11.7798 5.38406 11.4384 5.38406H10.4864V9.04806Z" fill="#CBCBCB"/>
</g>
</g>
</svg>
