<svg width="23" height="23" viewBox="0 0 23 23" fill="none" xmlns="http://www.w3.org/2000/svg">
<g id="ic:baseline-mic">
<path id="Vector" d="M11.1038 12.9546C12.6399 12.9546 13.8705 11.7146 13.8705 10.1786L13.8798 4.62659C13.8798 3.09053 12.6399 1.85059 11.1038 1.85059C9.56775 1.85059 8.3278 3.09053 8.3278 4.62659V10.1786C8.3278 11.7146 9.56775 12.9546 11.1038 12.9546ZM16.0081 10.1786C16.0081 12.9546 13.6577 14.8978 11.1038 14.8978C8.54988 14.8978 6.19953 12.9546 6.19953 10.1786H4.62646C4.62646 13.334 7.14337 15.9434 10.1785 16.3968V19.4319H12.0291V16.3968C15.0642 15.9527 17.5811 13.3432 17.5811 10.1786H16.0081Z" fill="#C4C4C4"/>
</g>
</svg>
