<svg width="26" height="26" viewBox="0 0 26 26" fill="none" xmlns="http://www.w3.org/2000/svg">
<g id="global icon">
<path id="Vector 1 (Stroke)" fill-rule="evenodd" clip-rule="evenodd" d="M11.2193 3.25211V7.21538C11.2193 7.4828 11.165 7.75353 11.054 8.00489C9.29353 11.9929 6.69701 13.9481 4.20601 14.393C4.14508 14.4039 4.09562 14.4348 4.0681 14.4647C4.05566 14.4782 4.05115 14.4876 4.05 14.4904L4.04957 14.4915L4.04962 20.8918C4.04962 20.8918 4.05185 20.8948 4.05429 20.897C4.06431 20.9064 4.07878 20.9124 4.09578 20.9114C6.13583 20.788 7.45897 21.0065 8.47312 21.3516C8.97216 21.5215 9.37599 21.7153 9.71573 21.8825C9.74545 21.8972 9.77443 21.9114 9.80275 21.9254C10.1101 22.077 10.3393 22.19 10.5848 22.277C10.723 22.326 11.1399 22.3874 11.8657 22.4206C12.5455 22.4517 13.3856 22.4552 14.282 22.4405C16.0729 22.4111 18.0428 22.3102 19.3083 22.2261L19.3386 22.2241H19.3691C19.5083 22.2241 19.5955 22.2065 19.6451 22.1908C19.6918 22.176 19.708 22.1621 19.7105 22.1601C19.713 22.1579 19.7199 22.152 19.7304 22.1317C19.7423 22.1088 19.7592 22.0666 19.7733 21.9962C19.8429 21.6494 19.7674 21.1453 19.6605 20.5502C19.5434 19.8989 19.8734 19.3326 20.3116 19.0421C21.0753 18.536 21.0951 17.9232 21.0279 17.7162C20.9036 17.3334 20.8592 16.7653 21.182 16.2589C21.5006 15.7591 21.4914 15.439 21.4434 15.2418C21.3849 15.0016 21.2221 14.7642 20.9902 14.5371C20.468 14.026 20.4064 13.2453 20.7111 12.6624C20.8404 12.4148 20.8399 12.2538 20.821 12.1521C20.7991 12.0341 20.7328 11.8989 20.604 11.7545C20.4744 11.6092 20.3089 11.4865 20.1559 11.4023C20.0839 11.3626 20.0255 11.3376 19.9879 11.3242H14.8081V7.93834C14.8081 4.96319 14.1218 3.85968 13.5573 3.44455C12.9769 3.01771 12.1688 3.03945 11.2193 3.25211ZM14.6534 1.87131C15.9792 2.84631 16.6912 4.7786 16.6912 7.93834V9.38945H20.0561C20.2612 9.38945 20.4526 9.4434 20.5846 9.48914C20.7343 9.54096 20.8906 9.61183 21.0449 9.69672C21.3507 9.86497 21.6952 10.1142 21.9922 10.4473C22.2901 10.7811 22.5671 11.2305 22.6709 11.79C22.7635 12.2896 22.706 12.8147 22.4833 13.3386C22.7927 13.6818 23.1209 14.1589 23.2702 14.7724C23.4524 15.5209 23.3374 16.3424 22.8392 17.1856C23.1501 18.2695 22.7331 19.6049 21.5659 20.5013C21.6531 21.0139 21.7476 21.7392 21.6176 22.387C21.5318 22.8142 21.3351 23.2891 20.9128 23.6491C20.4967 24.0037 19.9715 24.1532 19.4018 24.1587C18.1144 24.2438 16.1285 24.3452 14.3121 24.375C13.3982 24.3899 12.5158 24.387 11.782 24.3535C11.0943 24.322 10.4067 24.2605 9.97064 24.1059C9.61604 23.9803 9.28759 23.8179 8.99768 23.6745C8.96534 23.6585 8.93347 23.6428 8.90211 23.6273C8.57699 23.4673 8.26163 23.3178 7.88102 23.1882C7.13588 22.9347 6.05798 22.7307 4.20648 22.8428C3.14082 22.9072 2.1665 22.0557 2.1665 20.8924V14.4915C2.1665 13.3917 3.01804 12.6415 3.88344 12.4869C5.62341 12.1761 7.77035 10.755 9.33616 7.2123V3.24211C9.33616 2.37564 9.90503 1.5695 10.7813 1.3701C11.7867 1.14133 13.3497 0.912635 14.6534 1.87131Z" fill="white"/>
</g>
</svg>
