<svg width="11" height="11" viewBox="0 0 11 11" fill="none" xmlns="http://www.w3.org/2000/svg">
<g id="bi:bell-fill" clip-path="url(#clip0_569_209)">
<g id="Group">
<path id="Vector" d="M5.5 11.0001C5.86467 11.0001 6.21441 10.8552 6.47227 10.5974C6.73013 10.3395 6.875 9.98979 6.875 9.62511H4.125C4.125 9.98979 4.26987 10.3395 4.52773 10.5974C4.78559 10.8552 5.13533 11.0001 5.5 11.0001ZM6.18406 0.755676C6.19366 0.660081 6.18311 0.563537 6.1531 0.47227C6.12309 0.381002 6.07429 0.297037 6.00983 0.225791C5.94538 0.154544 5.86671 0.097597 5.7789 0.0586226C5.69108 0.0196482 5.59607 -0.000488281 5.5 -0.000488281C5.40393 -0.000488281 5.30892 0.0196482 5.2211 0.0586226C5.13329 0.097597 5.05462 0.154544 4.99017 0.225791C4.92571 0.297037 4.87691 0.381002 4.8469 0.47227C4.81689 0.563537 4.80634 0.660081 4.81594 0.755676C4.03887 0.913733 3.3403 1.33549 2.83853 1.94952C2.33675 2.56355 2.0626 3.33213 2.0625 4.12511C2.0625 4.87999 1.71875 8.25011 0.6875 8.93761H10.3125C9.28125 8.25011 8.9375 4.87999 8.9375 4.12511C8.9375 2.46136 7.755 1.07261 6.18406 0.755676Z" fill="white"/>
</g>
</g>
<defs>
<clipPath id="clip0_569_209">
<rect width="11" height="11" fill="white"/>
</clipPath>
</defs>
</svg>
