<svg width="19" height="19" viewBox="0 0 19 19" fill="none" xmlns="http://www.w3.org/2000/svg">
<g id="ant-design:search-outlined">
<path id="Vector" d="M16.4389 15.4431L11.7453 10.7495C12.4737 9.80793 12.8677 8.65669 12.8677 7.4458C12.8677 5.99635 12.302 4.63727 11.2791 3.61253C10.2561 2.5878 8.89344 2.02393 7.4458 2.02393C5.99816 2.02393 4.63546 2.58961 3.61253 3.61253C2.5878 4.63546 2.02393 5.99635 2.02393 7.4458C2.02393 8.89344 2.58961 10.2561 3.61253 11.2791C4.63546 12.3038 5.99635 12.8677 7.4458 12.8677C8.65669 12.8677 9.80612 12.4737 10.7477 11.7472L15.4413 16.4389C15.455 16.4527 15.4714 16.4636 15.4893 16.471C15.5073 16.4785 15.5266 16.4823 15.5461 16.4823C15.5656 16.4823 15.5848 16.4785 15.6028 16.471C15.6208 16.4636 15.6371 16.4527 15.6509 16.4389L16.4389 15.6527C16.4527 15.6389 16.4636 15.6226 16.471 15.6046C16.4785 15.5866 16.4823 15.5674 16.4823 15.5479C16.4823 15.5284 16.4785 15.5091 16.471 15.4912C16.4636 15.4732 16.4527 15.4568 16.4389 15.4431ZM10.3086 10.3086C9.54226 11.073 8.52656 11.4941 7.4458 11.4941C6.36504 11.4941 5.34934 11.073 4.58305 10.3086C3.81857 9.54226 3.39747 8.52656 3.39747 7.4458C3.39747 6.36504 3.81857 5.34754 4.58305 4.58305C5.34934 3.81857 6.36504 3.39747 7.4458 3.39747C8.52656 3.39747 9.54407 3.81676 10.3086 4.58305C11.073 5.34934 11.4941 6.36504 11.4941 7.4458C11.4941 8.52656 11.073 9.54407 10.3086 10.3086Z" fill="#C4C4C4"/>
</g>
</svg>
