<svg width="18" height="18" viewBox="0 0 18 18" fill="none" xmlns="http://www.w3.org/2000/svg">
<g id="global icon">
<g id="Vector">
<path fill-rule="evenodd" clip-rule="evenodd" d="M1.55672 4.70622C1.55672 3.7639 2.32446 3 3.27152 3L14.7852 3.00001C15.7322 3.00001 16.5 3.76391 16.5 4.70623L16.5 13.2373C16.5 14.1796 15.7323 14.9435 14.7852 14.9435H10.3757V13.481H14.7852C14.9205 13.481 15.0302 13.3719 15.0302 13.2373L15.0302 4.70623C15.0302 4.57161 14.9205 4.46248 14.7852 4.46248L3.27152 4.46247C3.13623 4.46247 3.02655 4.5716 3.02655 4.70621L3.02656 6.16868L1.55673 6.16868L1.55672 4.70622Z" fill="#E6E6E6"/>
<path fill-rule="evenodd" clip-rule="evenodd" d="M5.29993 10.9261C4.13785 9.65422 2.72802 8.84988 1.55671 8.84988V7.38742C3.32507 7.38742 5.09987 8.53303 6.38751 9.94234C7.68067 11.3577 8.6609 13.2318 8.6609 14.9435H7.19106C7.19106 13.7302 6.45649 12.192 5.29993 10.9261Z" fill="#E6E6E6"/>
<path fill-rule="evenodd" clip-rule="evenodd" d="M3.73174 12.7794C3.09997 12.1508 2.29758 11.7748 1.55671 11.7748V10.3124C2.77562 10.3124 3.93301 10.9114 4.77107 11.7452C5.60913 12.5791 6.21118 13.7307 6.21118 14.9435H4.74135C4.74135 14.2063 4.36351 13.408 3.73174 12.7794Z" fill="#E6E6E6"/>
<path fill-rule="evenodd" clip-rule="evenodd" d="M1.5 14.2075C1.5 14.2075 1.51961 14.2123 1.55671 14.2123V12.7498C1.88803 12.7498 2.18527 12.8994 2.3799 13.0193C2.59842 13.1538 2.81067 13.329 2.99504 13.5124C3.17941 13.6959 3.35541 13.9071 3.49068 14.1246C3.61118 14.3183 3.76146 14.614 3.76146 14.9437H2.29163C2.29163 14.9805 2.29638 15 2.29638 15C2.29638 15 2.28569 14.9663 2.24088 14.8942C2.17711 14.7917 2.07752 14.6678 1.95568 14.5465C1.83383 14.4253 1.70925 14.3262 1.60624 14.2627C1.53387 14.2182 1.5 14.2075 1.5 14.2075Z" fill="#E6E6E6"/>
</g>
</g>
</svg>
