<svg width="53" height="57" viewBox="0 0 53 57" fill="none" xmlns="http://www.w3.org/2000/svg">
<g id="logos:netflix-icon">
<path id="Vector" d="M29.3311 9.19019L29.3172 17.7315L29.3031 26.2728L28.6497 24.2901L28.6485 24.2863L27.8042 43.3016C28.6344 45.8229 29.0791 47.1689 29.0841 47.1742C29.0905 47.1814 29.5638 47.2121 30.1354 47.2426C31.8674 47.335 34.0139 47.5329 35.6422 47.7507C36.0192 47.801 36.3436 47.8268 36.3633 47.8079C36.3827 47.7892 36.3933 39.0925 36.3869 28.482L36.3749 9.19019H29.3311Z" fill="#B1060F" stroke="black" stroke-width="0.611984"/>
<path id="Vector_2" d="M16.5913 9.16455V28.476C16.5913 39.0973 16.601 47.7978 16.6128 47.8105C16.6246 47.8232 17.2362 47.7611 17.972 47.6725C18.7076 47.5839 19.7245 47.4737 20.2315 47.4276C21.0091 47.357 23.3308 47.1965 23.5995 47.1947C23.6778 47.1942 23.6828 46.7605 23.6941 39.0154L23.7061 30.8363L24.2678 32.5457L24.4666 33.1497L25.3106 14.1391L25.0206 13.2574C24.5874 11.9396 24.1538 10.6219 23.7198 9.30438L23.6732 9.16455H16.5913Z" fill="#B1060F" stroke="black" stroke-width="0.611984"/>
<path id="Vector_3" d="M16.5913 9.16455V20.0046L23.6917 40.2609C23.6925 39.7967 23.6933 39.546 23.6941 39.0154L23.7061 30.8363L24.2678 32.5457C27.3948 42.0616 29.0747 47.1635 29.0846 47.1742C29.091 47.1813 29.5643 47.212 30.1359 47.2425C31.8679 47.3349 34.0144 47.5329 35.6427 47.7506C36.0197 47.801 36.3442 47.8268 36.3638 47.8079C36.3771 47.795 36.386 43.5306 36.3883 37.5151L29.321 15.6637L29.3177 17.7315L29.3036 26.2728L28.6503 24.29C28.0118 22.3527 27.5855 21.0571 25.0206 13.2574C24.5874 11.9396 24.1538 10.6219 23.7198 9.30438L23.6732 9.16455H16.5913Z" fill="url(#paint0_radial_284_182)"/>
<path id="Vector_4" d="M16.5913 9.16455L23.7059 30.8461V30.8363L24.2676 32.5457C27.3946 42.0616 29.0745 47.1635 29.0844 47.1742C29.0908 47.1813 29.5641 47.2121 30.1357 47.2426C31.8677 47.335 34.0142 47.5329 35.6425 47.7507C36.0177 47.8008 36.3402 47.8264 36.363 47.8081L29.3032 26.269V26.2728L28.6498 24.29C28.0114 22.3527 27.5851 21.0571 25.0202 13.2574C24.3303 11.16 23.7451 9.38142 23.7194 9.30438L23.6728 9.16455H16.5913Z" fill="#E50914"/>
<path id="Vector_5" d="M29.3311 9.19019L29.3172 17.7315L29.3031 26.2728L28.6497 24.2901L28.6485 24.2863L27.8042 43.3016C28.6344 45.8229 29.0791 47.1689 29.0841 47.1742C29.0905 47.1814 29.5638 47.2121 30.1354 47.2426C31.8674 47.335 34.0139 47.5329 35.6422 47.7507C36.0192 47.801 36.3436 47.8268 36.3633 47.8079C36.3827 47.7892 36.3933 39.0925 36.3869 28.482L36.3749 9.19019H29.3311Z" fill="#B1060F" stroke="black" stroke-width="0.611984"/>
<path id="Vector_6" d="M16.5913 9.16455V28.476C16.5913 39.0973 16.601 47.7978 16.6128 47.8105C16.6246 47.8232 17.2362 47.7611 17.972 47.6725C18.7076 47.5839 19.7245 47.4737 20.2315 47.4276C21.0091 47.357 23.3308 47.1965 23.5995 47.1947C23.6778 47.1942 23.6828 46.7605 23.6941 39.0154L23.7061 30.8363L24.2678 32.5457L24.4666 33.1497L25.3106 14.1391L25.0206 13.2574C24.5874 11.9396 24.1538 10.6219 23.7198 9.30438L23.6732 9.16455H16.5913Z" fill="#B1060F" stroke="black" stroke-width="0.611984"/>
<path id="Vector_7" d="M16.5913 9.16455V20.0046L23.6917 40.2609C23.6925 39.7967 23.6933 39.546 23.6941 39.0154L23.7061 30.8363L24.2678 32.5457C27.3948 42.0616 29.0747 47.1635 29.0846 47.1742C29.091 47.1813 29.5643 47.212 30.1359 47.2425C31.8679 47.3349 34.0144 47.5329 35.6427 47.7506C36.0197 47.801 36.3442 47.8268 36.3638 47.8079C36.3771 47.795 36.386 43.5306 36.3883 37.5151L29.321 15.6637L29.3177 17.7315L29.3036 26.2728L28.6503 24.29C28.0118 22.3527 27.5855 21.0571 25.0206 13.2574C24.5874 11.9396 24.1538 10.6219 23.7198 9.30438L23.6732 9.16455H16.5913Z" fill="url(#paint1_radial_284_182)"/>
<path id="Vector_8" d="M16.5913 9.16455V20.0046L23.6917 40.2609C23.6925 39.7967 23.6933 39.546 23.6941 39.0154L23.7061 30.8363L24.2678 32.5457C27.3948 42.0616 29.0747 47.1635 29.0846 47.1742C29.091 47.1813 29.5643 47.212 30.1359 47.2425C31.8679 47.3349 34.0144 47.5329 35.6427 47.7506C36.0197 47.801 36.3442 47.8268 36.3638 47.8079C36.3771 47.795 36.386 43.5306 36.3883 37.5151L29.321 15.6637L29.3177 17.7315L29.3036 26.2728L28.6503 24.29C28.0118 22.3527 27.5855 21.0571 25.0206 13.2574C24.5874 11.9396 24.1538 10.6219 23.7198 9.30438L23.6732 9.16455H16.5913Z" fill="url(#paint2_radial_284_182)"/>
<path id="Vector_9" d="M16.5913 9.16455L23.7059 30.8461V30.8363L24.2676 32.5457C27.3946 42.0616 29.0745 47.1635 29.0844 47.1742C29.0908 47.1813 29.5641 47.2121 30.1357 47.2426C31.8677 47.335 34.0142 47.5329 35.6425 47.7507C36.0177 47.8008 36.3402 47.8264 36.363 47.8081L29.3032 26.269V26.2728L28.6498 24.29C28.0114 22.3527 27.5851 21.0571 25.0202 13.2574C24.3303 11.16 23.7451 9.38142 23.7194 9.30438L23.6728 9.16455H16.5913Z" fill="#E50914"/>
</g>
<defs>
<radialGradient id="paint0_radial_284_182" cx="0" cy="0" r="1" gradientUnits="userSpaceOnUse" gradientTransform="translate(26.1612 15.6199) scale(13.9446 14.9971)">
<stop/>
<stop offset="1" stop-opacity="0"/>
</radialGradient>
<radialGradient id="paint1_radial_284_182" cx="0" cy="0" r="1" gradientUnits="userSpaceOnUse" gradientTransform="translate(26.1612 15.6199) scale(13.9446 14.9971)">
<stop/>
<stop offset="1" stop-opacity="0"/>
</radialGradient>
<radialGradient id="paint2_radial_284_182" cx="0" cy="0" r="1" gradientUnits="userSpaceOnUse" gradientTransform="translate(26.1612 15.6199) scale(13.9446 14.9971)">
<stop/>
<stop offset="1" stop-opacity="0"/>
</radialGradient>
</defs>
</svg>
